<?xml version="1.0" encoding="UTF-8"?>
<svg width="88px" height="92px" viewBox="0 0 88 92" version="1.1" xmlns="http://www.w3.org/2000/svg" xmlns:xlink="http://www.w3.org/1999/xlink">
    <!-- Generator: Sketch 51.3 (57544) - http://www.bohemiancoding.com/sketch -->
    <title>Group 53</title>
    <desc>Created with Sketch.</desc>
    <defs>
        <path d="M78.9985282,58.3876239 C78.9985282,56.2175019 77.4990274,54.4604846 75.6497329,54.4604846 L57.0670096,54.4604846 C49.5993088,49.9169201 50.305519,44.1081857 50.305519,44.1081857 C50.0166818,40.9634186 56.5505366,33.259456 56.5505366,33.259456 C59.5775022,29.7534132 61.3880398,25.3089233 61.3880398,20.474834 C61.3880398,9.50035118 52.0618459,0.541208338 40.3370149,0 L38.6677684,0 C26.9419562,0.538975339 17.6168662,9.50035118 17.6168662,20.474834 C17.6081581,25.1212339 19.3151803,29.6313034 22.4547373,33.259456 C22.4547373,33.259456 28.9885921,40.9634186 28.6997549,44.1081857 C28.6997549,44.1081857 29.4069463,49.9169201 21.9382643,54.4604846 L3.34891798,54.4604846 C1.49815173,54.4604846 0,56.2175019 0,58.3876239 L0,69.733582 L78.9985282,69.6045382 L78.9985282,58.3876239 Z M0,76 L0,79.5324522 C0,82.0011375 1.49815173,84 3.34891798,84 L75.6515726,84 C77.5013577,84 79,82.0011375 79,79.5324522 L79,76 L0,76 Z" id="path-1"></path>
        <filter x="-7.0%" y="-5.4%" width="113.9%" height="113.1%" filterUnits="objectBoundingBox" id="filter-2">
            <feMorphology radius="2" operator="dilate" in="SourceAlpha" result="shadowSpreadOuter1"></feMorphology>
            <feOffset dx="0" dy="1" in="shadowSpreadOuter1" result="shadowOffsetOuter1"></feOffset>
            <feMorphology radius="2" operator="erode" in="SourceAlpha" result="shadowInner"></feMorphology>
            <feOffset dx="0" dy="1" in="shadowInner" result="shadowInner"></feOffset>
            <feComposite in="shadowOffsetOuter1" in2="shadowInner" operator="out" result="shadowOffsetOuter1"></feComposite>
            <feGaussianBlur stdDeviation="1" in="shadowOffsetOuter1" result="shadowBlurOuter1"></feGaussianBlur>
            <feColorMatrix values="0 0 0 0 0   0 0 0 0 0   0 0 0 0 0  0 0 0 0.5 0" type="matrix" in="shadowBlurOuter1"></feColorMatrix>
        </filter>
    </defs>
    <g id="Welcome" stroke="none" stroke-width="1" fill="none" fill-rule="evenodd">
        <g id="openbase首页" transform="translate(-748.000000, -1789.000000)">
            <g id="Group-43" transform="translate(706.666667, 1792.000000)">
                <g id="Group-53" transform="translate(46.000000, 0.000000)">
                    <g id="Fill-1">
                        <use fill="black" fill-opacity="1" filter="url(#filter-2)" xlink:href="#path-1"></use>
                        <use stroke="#F0F0F0" stroke-width="4" xlink:href="#path-1"></use>
                    </g>
                </g>
            </g>
        </g>
    </g>
</svg>