<?xml version="1.0" encoding="UTF-8"?>
<svg width="92px" height="91px" viewBox="0 0 92 91" version="1.1" xmlns="http://www.w3.org/2000/svg" xmlns:xlink="http://www.w3.org/1999/xlink">
    <!-- Generator: Sketch 51.3 (57544) - http://www.bohemiancoding.com/sketch -->
    <title>Group 54</title>
    <desc>Created with Sketch.</desc>
    <defs>
        <path d="M67.5495333,27.9925346 C68.1214333,29.3809412 67.8858833,30.5662951 66.8427667,31.5487136 L44.2253,54.3084473 C43.6192167,54.9517408 42.8622833,55.2733876 41.9535667,55.2733876 C41.0447333,55.2733876 40.2873333,54.9517408 39.6817167,54.3084473 L17.0639,31.5482444 C16.0206667,30.5662951 15.7851167,29.3809412 16.3574833,27.9925346 C16.9293833,26.6714603 17.92245,26.0111577 19.3361,26.0111577 L32.2602,26.0111577 L32.2602,3.25154134 C32.2602,2.37082514 32.5801,1.60882029 33.2194333,0.965409476 C33.8588833,0.321646754 34.6162833,0 35.4912833,0 L48.4152667,0 C49.2907333,0 50.0476667,0.321646754 50.6871167,0.965409476 C51.3269167,1.60882029 51.6464667,2.37082514 51.6464667,3.25154134 L51.6464667,26.0111577 L64.5709167,26.0111577 C65.9845667,26.0111577 66.9771667,26.6714603 67.5495333,27.9925346 M84,61.879351 L84,78.1259138 C84,79.4799505 83.5287833,80.6305825 82.5868167,81.5781618 C81.6443833,82.5262103 80.5,83 79.1537833,83 L4.84621667,83 C3.5,83 2.35561667,82.5262103 1.41365,81.5781618 C0.471216667,80.6305825 0,79.4799505 0,78.1259138 L0,61.879351 C0,60.5253143 0.471216667,59.3746823 1.41318333,58.427103 C2.35561667,57.4790545 3.5,57.0052648 4.84621667,57.0052648 L28.3194333,57.0052648 L35.1344,63.91023 C37.0868167,65.8058578 39.375,66.7534371 42,66.7534371 C44.625,66.7534371 46.9131833,65.8058578 48.8656,63.91023 L55.7306167,57.0052648 L79.1537833,57.0052648 C80.5,57.0052648 81.6443833,57.4790545 82.5868167,58.427103 C83.5287833,59.3746823 84,60.5253143 84,61.879351 M77.4666667,73.1931758 C77.4666667,72.3166826 77.1481667,71.5578449 76.5105833,70.9167802 C75.8734667,70.2761846 75.11875,69.9559455 74.2464333,69.9559455 C73.3747,69.9559455 72.6199833,70.2761846 71.9824,70.9167802 C71.3452833,71.5578449 71.0267833,72.3166826 71.0267833,73.1931758 C71.0267833,74.0702556 71.3452833,74.8290933 71.9824,75.4695715 C72.6199833,76.1106362 73.3747,76.4309926 74.2464333,76.4309926 C75.11875,76.4309926 75.8734667,76.1106362 76.5105833,75.4695715 C77.1481667,74.8290933 77.4666667,74.0702556 77.4666667,73.1931758 M64.5869,73.1931758 C64.5869,72.3166826 64.2678167,71.5578449 63.6307,70.9167802 C62.9935833,70.2761846 62.2389833,69.9559455 61.3666667,69.9559455 C60.49435,69.9559455 59.73975,70.2761846 59.1026333,70.9167802 C58.4655167,71.5578449 58.1464333,72.3166826 58.1464333,73.1931758 C58.1464333,74.0702556 58.4655167,74.8290933 59.1026333,75.4695715 C59.73975,76.1106362 60.49435,76.4309926 61.3666667,76.4309926 C62.2389833,76.4309926 62.9935833,76.1106362 63.6307,75.4695715 C64.2678167,74.8290933 64.5869,74.0702556 64.5869,73.1931758" id="path-1"></path>
        <filter x="-6.5%" y="-5.4%" width="113.1%" height="113.3%" filterUnits="objectBoundingBox" id="filter-2">
            <feMorphology radius="2" operator="dilate" in="SourceAlpha" result="shadowSpreadOuter1"></feMorphology>
            <feOffset dx="0" dy="1" in="shadowSpreadOuter1" result="shadowOffsetOuter1"></feOffset>
            <feMorphology radius="2" operator="erode" in="SourceAlpha" result="shadowInner"></feMorphology>
            <feOffset dx="0" dy="1" in="shadowInner" result="shadowInner"></feOffset>
            <feComposite in="shadowOffsetOuter1" in2="shadowInner" operator="out" result="shadowOffsetOuter1"></feComposite>
            <feGaussianBlur stdDeviation="1" in="shadowOffsetOuter1" result="shadowBlurOuter1"></feGaussianBlur>
            <feColorMatrix values="0 0 0 0 0   0 0 0 0 0   0 0 0 0 0  0 0 0 0.5 0" type="matrix" in="shadowBlurOuter1"></feColorMatrix>
        </filter>
    </defs>
    <g id="Welcome" stroke="none" stroke-width="1" fill="none" fill-rule="evenodd">
        <g id="openbase首页" transform="translate(-1049.000000, -1789.000000)">
            <g id="Group-45" transform="translate(1010.000000, 1792.000000)">
                <g id="Group-54" transform="translate(43.000000, 0.000000)">
                    <g id="Fill-1">
                        <use fill="black" fill-opacity="1" filter="url(#filter-2)" xlink:href="#path-1"></use>
                        <use stroke="#ACACAC" stroke-width="4" xlink:href="#path-1"></use>
                    </g>
                </g>
            </g>
        </g>
    </g>
</svg>